<?xml version="1.0" standalone="no"?>
<!DOCTYPE svg PUBLIC "-//W3C//DTD SVG 20010904//EN"
 "http://www.w3.org/TR/2001/REC-SVG-20010904/DTD/svg10.dtd">
<svg version="1.0" xmlns="http://www.w3.org/2000/svg"
 width="512.000000pt" height="512.000000pt" viewBox="0 0 512.000000 512.000000"
 preserveAspectRatio="xMidYMid meet">
<metadata>
Created by potrace 1.16, written by Peter Selinger 2001-2019
</metadata>
<g transform="translate(0.000000,512.000000) scale(0.100000,-0.100000)"
fill="#000000" stroke="none">
<path d="M3220 5107 c-20 -10 -91 -132 -122 -211 -2 -5 -65 1 -144 13 -264 43
-597 39 -853 -10 -279 -54 -655 -196 -690 -260 -19 -35 0 -83 39 -99 25 -10
41 -6 155 45 208 92 393 147 610 182 83 14 168 18 350 18 208 -1 257 -4 365
-24 187 -34 215 -36 246 -16 15 9 41 49 61 91 19 41 38 74 42 74 6 -1 403
-561 408 -577 3 -9 -697 -77 -705 -68 -3 2 7 31 22 64 46 103 27 160 -61 180
-162 36 -478 44 -668 16 -549 -81 -1021 -355 -1356 -788 -207 -267 -339 -566
-405 -917 -22 -115 -30 -460 -15 -587 106 -867 729 -1571 1571 -1776 220 -54
518 -73 730 -47 643 80 1193 435 1535 990 141 230 240 507 280 792 19 135 19
416 0 562 -45 342 -201 717 -408 980 -25 31 -28 40 -16 46 8 5 52 36 99 69
101 73 87 79 202 -94 92 -137 210 -374 261 -520 135 -390 162 -831 76 -1247
-148 -718 -670 -1355 -1352 -1647 -474 -204 -988 -244 -1491 -117 -393 100
-741 295 -1035 581 -138 134 -216 227 -313 371 -625 925 -502 2158 293 2944
54 53 135 125 180 161 116 89 139 113 139 144 0 33 -41 75 -74 75 -50 0 -305
-213 -447 -373 -171 -193 -282 -359 -395 -592 -160 -331 -244 -696 -244 -1065
0 -655 259 -1277 726 -1744 378 -378 867 -623 1403 -703 161 -24 521 -24 682
0 258 39 509 116 744 232 545 266 967 719 1204 1290 190 455 232 1007 115
1499 -51 214 -141 444 -246 631 -73 130 -188 294 -249 358 -70 72 -85 68 -282
-73 -87 -62 -162 -121 -167 -131 -25 -45 -12 -82 63 -182 206 -273 333 -571
381 -899 21 -138 21 -407 0 -547 -60 -413 -232 -764 -524 -1065 -279 -289
-605 -467 -1005 -553 -122 -26 -145 -27 -375 -27 -228 0 -254 2 -371 27 -295
63 -551 176 -779 346 -93 69 -263 232 -340 326 -195 237 -337 540 -401 855
-21 102 -24 142 -24 360 0 216 3 258 23 359 120 589 488 1081 1012 1350 253
130 477 192 760 211 113 7 359 -2 402 -16 14 -4 12 -14 -18 -79 -38 -82 -41
-103 -19 -144 29 -57 30 -57 545 -9 415 39 474 47 498 65 33 25 49 74 34 107
-18 40 -522 749 -553 779 -32 29 -68 34 -109 14z"/>
<path d="M1735 3576 c-232 -54 -418 -210 -496 -415 -29 -77 -51 -206 -45 -263
13 -122 108 -210 225 -210 64 0 111 17 157 55 38 33 74 105 74 150 0 139 119
253 243 233 140 -23 216 -149 175 -290 -8 -25 -65 -111 -149 -222 -75 -99
-141 -190 -148 -202 -24 -45 14 -102 69 -102 34 0 60 28 212 230 155 206 172
243 173 370 0 88 -3 100 -33 162 -64 130 -179 201 -327 202 -69 1 -89 -3 -145
-30 -118 -56 -187 -146 -210 -274 -6 -36 -13 -75 -16 -87 -8 -44 -88 -61 -124
-28 -27 24 -32 63 -20 140 39 247 268 444 516 445 71 0 196 -34 262 -72 158
-90 262 -272 262 -458 0 -170 -43 -251 -326 -620 -364 -475 -404 -530 -404
-551 0 -11 13 -34 29 -50 l29 -29 316 0 315 0 20 -26 c38 -48 16 -115 -42
-129 -12 -3 -228 -4 -480 -3 l-459 3 -25 29 c-18 22 -23 36 -19 57 3 16 51 88
107 161 231 302 239 313 239 346 0 62 -72 95 -118 55 -26 -24 -336 -433 -355
-470 -25 -47 -30 -99 -17 -155 17 -71 93 -149 162 -166 73 -19 949 -17 1012 2
66 20 110 57 140 118 43 86 31 180 -31 249 -66 73 -69 73 -346 79 l-248 5 237
310 c298 389 327 431 363 524 148 385 -46 793 -433 913 -82 25 -243 32 -321
14z"/>
<path d="M3188 3580 c-43 -13 -91 -46 -115 -78 -12 -16 -126 -237 -253 -492
-174 -348 -233 -474 -237 -511 -12 -101 39 -192 131 -235 51 -24 54 -24 404
-24 l352 0 0 -355 c0 -384 1 -389 55 -453 84 -100 246 -103 336 -5 67 71 64
47 64 596 l0 499 -24 19 c-31 26 -73 24 -99 -4 -21 -22 -21 -27 -24 -505 l-3
-481 -22 -23 c-31 -31 -89 -30 -114 1 -18 22 -19 47 -19 408 0 403 -3 430 -45
447 -9 3 -192 6 -406 6 l-390 0 -24 25 c-14 13 -25 36 -25 50 0 36 454 939
482 959 12 9 33 16 46 16 33 0 72 -43 72 -80 0 -19 -61 -153 -170 -370 -104
-208 -170 -351 -170 -369 0 -20 9 -36 26 -50 25 -20 39 -21 280 -21 164 0 262
4 277 11 41 18 47 49 47 223 0 157 1 163 23 184 29 27 77 28 108 3 20 -16 24
-30 27 -95 4 -67 7 -79 29 -96 29 -23 42 -24 77 -9 37 17 50 59 43 139 -12
149 -106 237 -243 228 -86 -5 -148 -44 -186 -117 -27 -51 -28 -60 -28 -187 l0
-134 -145 0 -145 0 150 301 c141 282 150 304 150 357 0 73 -26 128 -79 173
-61 53 -140 71 -213 49z"/>
</g>
</svg>
