<?xml version="1.0" standalone="no"?>
<!DOCTYPE svg PUBLIC "-//W3C//DTD SVG 20010904//EN"
 "http://www.w3.org/TR/2001/REC-SVG-20010904/DTD/svg10.dtd">
<svg version="1.0" xmlns="http://www.w3.org/2000/svg"
 width="512.000000pt" height="512.000000pt" viewBox="0 0 512.000000 512.000000"
 preserveAspectRatio="xMidYMid meet">
<metadata>
Created by potrace 1.16, written by Peter Selinger 2001-2019
</metadata>
<g transform="translate(0.000000,512.000000) scale(0.100000,-0.100000)"
fill="#000000" stroke="none">
<path d="M466 4789 c-62 -15 -153 -68 -197 -116 -22 -24 -55 -74 -72 -111
l-32 -67 -3 -983 -2 -982 24 -25 c33 -33 79 -33 111 0 l25 24 0 952 c0 718 3
962 12 993 16 55 99 138 154 154 32 9 508 12 2076 12 2295 0 2092 7 2171 -80
24 -26 49 -66 55 -88 8 -28 12 -166 12 -471 l0 -432 25 -24 c32 -33 78 -33
111 0 l25 25 -3 463 -3 462 -32 67 c-44 93 -100 151 -191 196 l-76 37 -2075 2
c-1231 0 -2092 -3 -2115 -8z"/>
<path d="M719 4387 c-121 -45 -185 -174 -147 -299 14 -48 76 -121 118 -138
l30 -12 0 -185 c0 -182 0 -184 25 -208 l24 -25 391 0 391 0 24 25 c24 23 25
29 25 159 l0 135 48 6 c266 33 409 73 605 171 84 42 210 122 279 176 24 19 29
19 46 7 179 -131 353 -224 522 -279 87 -28 252 -62 373 -76 l47 -5 0 -353 c0
-451 -14 -543 -113 -741 -78 -156 -119 -204 -407 -470 -118 -109 -265 -246
-327 -303 l-112 -104 -318 295 c-175 162 -341 319 -369 348 -170 178 -274 447
-274 711 0 81 -2 91 -25 113 -15 16 -36 25 -55 25 -19 0 -40 -9 -55 -25 -23
-22 -25 -32 -25 -120 l0 -95 -209 0 -209 0 -12 30 c-18 44 -92 105 -145 120
-52 15 -130 8 -173 -14 -38 -20 -88 -69 -110 -110 -23 -42 -23 -169 0 -212 42
-76 134 -134 216 -134 83 0 184 62 212 130 l12 30 223 0 222 0 18 -67 c34
-127 98 -262 171 -365 l34 -48 -220 0 -221 0 -24 -25 c-25 -24 -25 -27 -25
-200 l0 -175 -89 0 -89 0 -12 30 c-18 44 -92 105 -145 120 -52 15 -130 8 -172
-14 -37 -19 -90 -72 -111 -110 -23 -43 -23 -170 1 -213 56 -104 177 -155 289
-121 48 14 121 76 138 118 l12 30 145 0 c139 0 145 1 168 25 25 24 25 27 25
200 l0 175 238 0 238 0 234 -217 c463 -427 459 -423 491 -423 32 0 22 -9 474
409 l250 231 238 0 237 0 0 -175 c0 -173 0 -176 25 -200 23 -24 28 -25 169
-25 137 0 145 -1 151 -21 20 -64 133 -139 208 -139 77 0 115 83 62 135 -15 16
-36 25 -55 25 -70 0 -105 86 -55 135 49 50 135 15 135 -55 0 -70 86 -105 135
-55 48 47 26 145 -50 220 -70 71 -146 91 -237 63 -48 -14 -121 -76 -138 -118
l-12 -30 -89 0 -89 0 0 175 c0 173 0 176 -25 200 l-24 25 -221 0 -220 0 34 48
c73 103 137 238 171 365 l18 67 222 0 223 0 12 -30 c17 -42 90 -104 138 -118
112 -34 233 17 290 123 23 42 23 169 -1 212 -56 104 -177 155 -289 121 -48
-14 -121 -76 -138 -118 l-12 -30 -209 0 -209 0 0 200 0 200 335 0 336 0 24 25
c25 24 25 26 25 208 l0 185 30 12 c68 28 130 129 130 212 0 82 -58 174 -134
216 -43 23 -170 23 -213 -1 -104 -56 -155 -177 -121 -289 14 -48 76 -121 118
-138 l30 -12 0 -129 0 -129 -280 0 -280 0 0 135 c0 179 0 179 -158 188 -315
18 -591 126 -856 334 -51 41 -88 63 -105 63 -17 0 -57 -25 -115 -71 -260 -205
-598 -329 -899 -329 -48 0 -62 -4 -82 -25 -24 -23 -25 -29 -25 -160 l0 -135
-280 0 -280 0 0 129 0 129 30 12 c68 28 130 129 130 212 0 82 -59 176 -134
215 -41 21 -142 27 -187 10z m136 -172 c50 -49 15 -135 -55 -135 -41 0 -80 39
-80 80 0 41 39 80 80 80 19 0 40 -9 55 -25z m3520 0 c16 -15 25 -36 25 -55 0
-19 -9 -40 -25 -55 -15 -16 -36 -25 -55 -25 -19 0 -40 9 -55 25 -16 15 -25 36
-25 55 0 19 9 40 25 55 15 16 36 25 55 25 19 0 40 -9 55 -25z m-3520 -1120
c50 -49 15 -135 -55 -135 -41 0 -80 39 -80 80 0 41 39 80 80 80 19 0 40 -9 55
-25z m3520 0 c16 -15 25 -36 25 -55 0 -19 -9 -40 -25 -55 -15 -16 -36 -25 -55
-25 -19 0 -40 9 -55 25 -16 15 -25 36 -25 55 0 19 9 40 25 55 15 16 36 25 55
25 19 0 40 -9 55 -25z m-3520 -1040 c16 -15 25 -36 25 -55 0 -19 -9 -40 -25
-55 -15 -16 -36 -25 -55 -25 -19 0 -40 9 -55 25 -16 15 -25 36 -25 55 0 19 9
40 25 55 15 16 36 25 55 25 19 0 40 -9 55 -25z"/>
<path d="M2540 3993 c-8 -3 -46 -25 -85 -49 -153 -94 -368 -181 -540 -219 -38
-8 -80 -18 -92 -20 -12 -3 -32 -15 -43 -27 -19 -21 -20 -34 -20 -277 0 -333
15 -424 96 -585 64 -127 121 -191 399 -447 248 -229 273 -249 306 -249 33 0
57 19 303 246 148 137 289 276 316 313 118 157 180 345 180 549 0 75 -2 85
-25 107 -32 33 -78 33 -110 0 -22 -21 -25 -33 -25 -104 0 -43 -6 -112 -14
-153 -35 -180 -99 -283 -287 -459 -227 -213 -332 -309 -338 -309 -4 0 -110 96
-236 213 -243 224 -295 286 -345 405 -48 114 -60 197 -60 427 l0 204 43 11
c191 50 371 120 510 200 l87 50 90 -51 c169 -95 407 -182 573 -210 67 -11 78
-11 101 4 32 21 42 58 26 96 -13 33 -40 46 -120 61 -157 29 -369 112 -545 215
-114 66 -118 68 -145 58z"/>
<path d="M2838 3422 c-14 -9 -102 -108 -194 -220 l-168 -202 -96 94 c-52 52
-105 97 -118 101 -55 16 -111 -41 -97 -97 4 -14 68 -86 144 -162 116 -115 142
-136 168 -136 17 0 40 8 51 18 11 9 110 126 221 259 127 153 204 254 207 272
5 25 1 36 -24 61 -35 34 -56 37 -94 12z"/>
<path d="M4825 3335 l-25 -24 0 -832 c0 -614 -3 -842 -12 -871 -6 -22 -31 -62
-55 -88 -79 -87 124 -80 -2171 -80 -1568 0 -2044 3 -2076 12 -55 16 -138 99
-154 154 -8 29 -12 138 -12 353 l0 312 -25 24 c-32 33 -78 33 -111 0 l-25 -25
3 -343 3 -342 32 -67 c44 -93 100 -151 191 -196 l76 -37 564 -3 565 -3 -7 -60
c-8 -85 -59 -231 -111 -319 -46 -79 -124 -174 -185 -227 l-35 -31 -156 -3
-155 -4 -76 -37 c-129 -64 -212 -182 -225 -321 -5 -61 -4 -67 20 -91 l26 -26
431 0 431 0 24 25 c33 32 33 78 0 110 l-24 25 -366 0 c-324 0 -365 2 -365 16
0 27 101 119 146 132 60 17 3128 17 3188 0 45 -13 146 -105 146 -132 0 -14
-122 -16 -1245 -16 l-1246 0 -24 -25 c-33 -32 -33 -78 0 -110 l24 -25 1311 0
1311 0 26 26 c24 24 25 30 20 92 -9 88 -60 194 -123 251 -25 24 -75 57 -112
74 -65 31 -73 32 -222 35 l-155 4 -40 36 c-154 139 -272 359 -291 541 l-7 60
565 3 564 3 76 37 c91 45 147 103 191 196 l32 67 3 863 3 862 -25 25 c-33 33
-79 33 -111 0z m-1461 -2071 c3 -9 6 -28 6 -44 0 -44 45 -210 79 -289 28 -65
104 -190 161 -263 l22 -28 -1072 0 -1072 0 21 28 c131 169 214 353 236 517 3
28 8 60 11 73 l4 22 799 0 c719 0 799 -2 805 -16z"/>
</g>
</svg>
