<?xml version="1.0" standalone="no"?>
<!DOCTYPE svg PUBLIC "-//W3C//DTD SVG 20010904//EN"
 "http://www.w3.org/TR/2001/REC-SVG-20010904/DTD/svg10.dtd">
<svg version="1.0" xmlns="http://www.w3.org/2000/svg"
 width="512.000000pt" height="512.000000pt" viewBox="0 0 512.000000 512.000000"
 preserveAspectRatio="xMidYMid meet">
<metadata>
Created by potrace 1.16, written by Peter Selinger 2001-2019
</metadata>
<g transform="translate(0.000000,512.000000) scale(0.100000,-0.100000)"
fill="#000000" stroke="none">
<path d="M2180 5110 c-733 -76 -1377 -466 -1782 -1079 -85 -129 -208 -372
-208 -412 0 -39 32 -69 73 -69 42 0 55 15 99 110 31 67 42 81 99 121 118 83
374 227 385 216 2 -2 -4 -28 -15 -58 -31 -91 -89 -326 -115 -467 -13 -74 -26
-136 -29 -138 -2 -2 -64 -20 -138 -38 -74 -19 -178 -48 -232 -66 -55 -17 -101
-29 -104 -27 -3 3 1 31 8 62 11 51 11 58 -8 83 -28 37 -87 38 -114 2 -21 -27
-48 -145 -75 -315 -20 -133 -23 -487 -5 -615 47 -329 128 -583 273 -852 118
-220 240 -383 427 -568 373 -371 820 -593 1361 -677 84 -13 174 -17 335 -17
247 0 372 14 587 68 l127 32 53 -44 c72 -60 219 -157 298 -197 111 -55 367
-165 387 -165 29 0 386 163 474 216 130 78 193 134 197 172 4 38 -34 82 -70
82 -13 0 -61 -28 -108 -61 -78 -56 -306 -175 -441 -229 l-56 -23 -150 66
c-221 98 -306 148 -448 268 -238 200 -407 489 -477 818 -19 88 -21 139 -25
617 l-5 521 94 12 c395 53 670 163 951 379 l59 45 41 -30 c23 -16 77 -55 119
-85 100 -72 285 -166 417 -212 110 -38 281 -76 439 -97 l94 -12 -5 -511 c-4
-560 -7 -592 -69 -786 -53 -167 -131 -314 -239 -456 -42 -54 -48 -87 -24 -121
29 -42 88 -37 128 11 97 115 216 334 270 497 77 230 87 336 87 924 0 440 -2
473 -19 512 -28 61 -44 67 -248 99 l-33 5 0 113 c0 502 -173 1013 -479 1420
-386 511 -945 845 -1581 941 -124 19 -459 27 -580 15z m510 -158 c30 -7 37
-15 58 -67 26 -64 105 -335 117 -399 l8 -39 -34 7 c-67 13 -633 18 -758 7 -69
-6 -126 -9 -128 -8 -9 9 123 450 145 485 5 7 43 17 88 22 89 10 450 5 504 -8z
m-792 -124 c-16 -51 -46 -160 -67 -243 l-38 -150 -34 -8 c-19 -4 -101 -21
-184 -37 -82 -16 -218 -49 -302 -72 l-152 -44 14 32 c24 59 126 236 187 327
59 87 62 90 144 128 106 50 253 104 369 134 49 13 91 24 91 25 1 0 -12 -42
-28 -92z m1287 7 c39 -15 112 -45 163 -67 l93 -40 63 -97 c67 -100 180 -300
190 -337 6 -20 1 -19 -119 17 -134 40 -289 76 -446 104 l-97 17 -32 131 c-17
73 -47 180 -66 238 -19 58 -34 109 -34 112 0 8 202 -47 285 -78z m784 -490
c87 -84 275 -294 268 -301 -1 -2 -49 21 -107 50 -58 28 -133 64 -167 79 -56
23 -65 31 -80 69 -9 24 -45 101 -80 171 l-63 129 62 -49 c34 -26 109 -93 167
-148z m-2947 68 c-32 -65 -68 -142 -80 -170 -12 -29 -28 -53 -35 -53 -7 0 -81
-34 -165 -75 -97 -47 -149 -68 -143 -57 20 37 172 211 244 279 69 66 223 193
232 193 3 0 -21 -53 -53 -117z m1833 -110 l50 -8 12 -63 c35 -174 104 -745 92
-755 -2 -2 -83 0 -179 5 -182 10 -958 3 -998 -8 -22 -6 -23 -5 -18 42 3 27 15
137 27 244 19 179 71 526 80 535 22 21 799 28 934 8z m-1099 -65 c-25 -122
-96 -683 -96 -762 0 -10 -22 -15 -87 -20 -147 -12 -427 -46 -576 -70 -78 -13
-144 -22 -146 -20 -2 1 9 65 24 141 31 155 88 366 134 494 l31 85 143 47 c192
63 480 133 556 136 21 1 23 -2 17 -31z m1488 2 c152 -32 325 -79 461 -127 l80
-28 38 -110 c64 -182 162 -594 146 -609 -2 -2 -36 2 -76 10 -92 17 -429 60
-598 77 l-130 12 -8 95 c-10 125 -55 494 -73 595 -18 100 -18 115 1 115 8 0
79 -14 159 -30z m886 -315 c58 -31 148 -86 201 -121 l96 -64 41 -89 c63 -139
161 -435 148 -449 -2 -2 -55 13 -117 32 -63 19 -170 49 -238 65 -68 17 -125
32 -126 33 0 2 -17 86 -37 188 -20 102 -55 248 -77 325 -23 77 -41 143 -41
147 0 11 36 -5 150 -67z m-1277 -594 c87 -5 163 -13 168 -18 6 -6 12 -147 16
-340 l6 -331 -29 -6 c-16 -3 -92 -15 -169 -26 -232 -35 -235 -39 -235 -327 l0
-203 -237 0 c-239 1 -560 14 -570 23 -2 3 -10 145 -16 316 -10 293 1 882 17
899 18 18 772 27 1049 13z m-1210 -118 c-10 -128 -10 -880 0 -1007 l8 -98 -73
7 c-352 32 -735 91 -747 114 -15 26 -31 285 -31 481 0 195 16 454 30 481 10
17 100 35 345 69 164 22 391 47 443 49 l33 1 -8 -97z m1749 77 c179 -18 399
-48 538 -73 l65 -12 6 -45 c3 -25 9 -81 13 -124 l7 -79 -23 16 c-53 39 -85 51
-133 51 -58 0 -76 -9 -205 -104 -122 -89 -229 -149 -359 -200 -57 -23 -104
-40 -106 -38 -1 2 -5 144 -8 316 -5 242 -4 312 6 312 7 0 96 -9 199 -20z
m-2729 -222 c-10 -133 -10 -583 0 -716 l8 -103 -28 7 c-116 28 -331 91 -395
115 l-76 30 -9 87 c-10 107 -10 351 1 454 l8 77 76 30 c92 35 357 112 415 120
4 1 4 -45 0 -101z m3600 76 c56 -14 164 -46 240 -70 121 -40 139 -49 148 -72
6 -15 13 -101 16 -191 l6 -164 -38 7 c-104 20 -330 111 -431 174 l-31 20 -7
138 c-3 77 -9 149 -12 162 -4 12 -3 22 1 22 3 0 52 -12 108 -26z m-3945 -954
c52 -17 155 -46 230 -65 74 -19 138 -37 142 -42 3 -4 14 -57 24 -118 19 -120
84 -387 116 -480 11 -32 18 -60 16 -62 -11 -11 -290 147 -398 224 -54 39 -70
65 -133 224 -41 101 -105 306 -105 335 0 18 -1 19 108 -16z m697 -159 c137
-21 424 -55 563 -67 60 -5 82 -10 82 -21 0 -78 77 -689 97 -772 6 -23 5 -23
-48 -16 -101 14 -344 75 -506 127 l-162 51 -30 82 c-57 158 -131 444 -156 604
-6 39 -5 42 11 38 11 -3 78 -15 149 -26z m1223 -97 l372 -7 0 -204 c0 -235 11
-356 45 -501 14 -57 25 -108 25 -114 0 -11 -599 -4 -707 8 l-52 6 -10 46 c-17
82 -60 382 -75 537 -9 83 -18 172 -21 199 l-6 49 28 -7 c15 -3 196 -9 401 -12z
m-1353 -696 c35 -14 44 -24 64 -75 13 -32 48 -107 78 -166 38 -76 48 -105 36
-99 -27 15 -233 194 -279 243 -58 62 -174 201 -185 221 -6 12 33 -3 118 -45
70 -35 146 -70 168 -79z m691 -208 c88 -17 172 -34 188 -38 28 -7 30 -12 61
-137 27 -109 83 -299 101 -342 12 -28 -300 69 -452 141 -91 44 -92 44 -152
133 -64 95 -161 264 -186 323 l-15 36 149 -42 c81 -24 219 -57 306 -74z m811
-76 l353 -3 44 -86 45 -85 -45 -139 c-25 -76 -50 -146 -57 -155 -33 -44 -601
-47 -629 -4 -19 31 -111 331 -137 447 l-9 43 41 -7 c23 -4 201 -9 394 -11z"/>
<path d="M3680 2421 c-171 -38 -309 -111 -436 -233 -131 -126 -206 -254 -256
-436 -30 -110 -30 -323 1 -437 90 -335 358 -590 693 -660 112 -24 287 -20 402
10 483 122 777 614 655 1093 -23 93 -67 190 -90 202 -29 16 -68 11 -90 -11
-26 -26 -23 -64 14 -164 143 -392 -75 -826 -483 -965 -82 -28 -279 -39 -372
-20 -249 48 -470 237 -557 476 -76 210 -65 398 36 604 39 80 60 109 137 185
101 100 190 154 326 196 109 34 302 34 410 1 92 -29 185 -77 265 -137 66 -50
103 -57 136 -24 14 14 19 30 17 57 -3 31 -12 44 -68 89 -82 66 -221 136 -325
164 -116 30 -303 35 -415 10z"/>
<path d="M4123 1842 c-37 -49 -140 -183 -227 -299 l-160 -211 -54 44 c-30 24
-65 47 -79 50 -52 14 -101 -37 -87 -90 6 -24 162 -156 209 -178 49 -22 70 -1
328 342 210 280 247 334 247 363 0 43 -26 67 -73 67 -34 0 -41 -6 -104 -88z"/>
</g>
</svg>
