<?xml version="1.0" standalone="no"?>
<!DOCTYPE svg PUBLIC "-//W3C//DTD SVG 20010904//EN"
 "http://www.w3.org/TR/2001/REC-SVG-20010904/DTD/svg10.dtd">
<svg version="1.0" xmlns="http://www.w3.org/2000/svg"
 width="512.000000pt" height="512.000000pt" viewBox="0 0 512.000000 512.000000"
 preserveAspectRatio="xMidYMid meet">
<metadata>
Created by potrace 1.16, written by Peter Selinger 2001-2019
</metadata>
<g transform="translate(0.000000,512.000000) scale(0.100000,-0.100000)"
fill="#000000" stroke="none">
<path d="M2422 5108 c-232 -12 -468 -57 -673 -126 l-86 -30 -68 44 c-122 79
-248 114 -411 114 -285 0 -541 -155 -673 -410 -97 -186 -112 -377 -46 -571
l23 -68 -63 -93 c-215 -323 -345 -668 -406 -1083 -21 -134 -18 -519 5 -670 53
-365 180 -713 367 -1011 627 -996 1843 -1439 2959 -1079 659 214 1197 676
1504 1295 332 670 352 1455 54 2150 -349 815 -1111 1392 -2008 1521 -120 17
-334 25 -478 17z m-1087 -183 c329 -84 525 -426 421 -735 -62 -184 -201 -439
-402 -740 -149 -222 -158 -235 -172 -226 -19 12 -258 378 -342 526 -110 191
-205 389 -227 470 -79 300 116 622 427 704 73 19 221 20 295 1z m1512 0 c358
-47 682 -163 987 -353 l46 -28 -27 -25 c-104 -96 -170 -121 -329 -124 -108 -2
-128 -6 -183 -30 -112 -51 -205 -178 -246 -336 -21 -82 -21 -244 0 -324 49
-182 172 -321 344 -386 196 -75 476 -116 608 -90 198 38 316 33 452 -20 200
-79 347 -215 422 -389 23 -52 24 -65 24 -265 -1 -351 -55 -624 -185 -933 l-51
-121 -92 48 c-51 27 -114 57 -142 67 -27 9 -53 20 -58 24 -4 4 4 31 17 61 40
87 76 227 83 318 19 279 -156 573 -420 704 -129 65 -196 80 -347 80 -70 1
-145 -5 -170 -12 -333 -92 -556 -344 -589 -664 -18 -180 29 -342 185 -634 l55
-101 -40 -46 c-22 -26 -61 -77 -87 -114 -71 -101 -104 -134 -122 -120 -38 32
-102 210 -122 341 -8 53 -9 115 -3 190 9 130 7 184 -12 248 -45 156 -160 247
-367 289 -228 47 -375 49 -605 10 -147 -25 -183 -19 -249 42 -65 60 -98 134
-98 224 -1 116 26 139 254 215 160 53 359 151 480 236 136 96 315 278 374 378
64 109 90 198 91 305 0 142 -31 205 -218 446 -49 64 -103 174 -122 249 -37
147 -5 328 95 533 l60 122 95 0 c52 0 147 -7 212 -15z m-507 0 c0 -3 -13 -31
-29 -63 -102 -203 -136 -438 -91 -618 29 -115 97 -244 189 -359 45 -55 95
-129 113 -164 28 -56 32 -75 32 -135 -3 -184 -162 -388 -450 -576 -111 -73
-216 -121 -387 -180 -176 -60 -215 -79 -272 -131 -55 -51 -83 -111 -91 -196
-13 -146 42 -289 150 -391 111 -104 219 -129 396 -93 200 41 352 38 563 -11
108 -25 173 -65 205 -128 23 -44 23 -50 17 -210 -7 -189 2 -267 47 -415 43
-141 83 -219 141 -271 52 -46 94 -60 154 -51 66 11 107 51 227 216 32 44 62
81 65 81 4 0 66 -89 139 -198 164 -245 230 -334 262 -349 50 -23 77 -6 149 91
104 140 259 375 361 546 51 85 94 157 96 159 12 13 294 -110 294 -128 0 -10
-88 -150 -134 -211 -386 -521 -944 -857 -1586 -955 -128 -19 -418 -29 -520
-18 l-75 8 -24 49 c-33 66 -40 184 -17 257 28 84 58 115 163 165 201 95 284
229 284 456 -1 120 -20 206 -71 315 -60 129 -168 246 -275 301 -69 35 -174 62
-239 62 -80 0 -143 -19 -281 -85 -217 -104 -432 -166 -576 -167 -157 0 -261
46 -398 177 -228 218 -339 426 -405 760 -79 403 -103 733 -71 1000 17 147 18
151 66 237 27 49 62 109 78 134 l28 46 68 -124 c135 -244 455 -726 508 -763
31 -22 72 -19 101 8 30 27 182 238 291 406 232 356 373 644 412 840 32 165
-16 369 -127 538 -11 17 -17 34 -12 37 5 3 69 21 143 40 171 45 389 79 389 61z
m1756 -542 c283 -232 539 -588 682 -948 40 -100 83 -235 76 -235 -2 0 -27 18
-55 39 -117 88 -305 164 -453 182 -76 9 -108 8 -210 -8 -180 -27 -313 -23
-461 14 -219 56 -302 102 -362 203 -52 85 -66 149 -60 265 5 116 30 192 84
255 53 62 84 74 182 72 170 -3 317 50 432 157 35 33 66 60 70 61 3 0 36 -26
75 -57z m-3826 -1783 c53 -325 108 -505 207 -675 138 -239 365 -459 539 -525
92 -34 144 -43 254 -43 180 1 378 56 639 179 168 79 215 87 310 54 35 -12 83
-34 107 -50 219 -152 290 -511 132 -676 -16 -18 -60 -44 -96 -60 -155 -64
-226 -144 -268 -299 -16 -60 -18 -195 -3 -248 6 -22 8 -41 6 -44 -18 -17 -301
67 -472 140 -718 306 -1239 936 -1404 1697 -62 286 -70 663 -19 910 l12 55 12
-110 c6 -60 26 -198 44 -305z m3635 15 c138 -36 284 -143 354 -259 63 -105 84
-179 85 -296 1 -92 -3 -115 -28 -185 -45 -126 -135 -305 -249 -495 -110 -183
-296 -462 -313 -467 -12 -4 -269 383 -364 547 -91 158 -193 376 -215 460 -23
86 -16 231 14 314 75 210 264 366 486 400 50 7 166 -2 230 -19z"/>
<path d="M1091 4759 c-55 -17 -138 -75 -170 -120 -51 -70 -74 -144 -69 -225 8
-129 79 -233 196 -291 49 -24 69 -28 142 -28 73 0 93 4 142 28 72 35 134 97
167 167 22 46 26 69 26 140 0 76 -4 93 -33 152 -58 118 -155 180 -287 185 -44
1 -95 -2 -114 -8z m184 -182 c46 -25 85 -92 85 -144 0 -105 -101 -188 -205
-169 -43 8 -103 59 -121 103 -46 109 37 233 156 233 28 0 60 -9 85 -23z"/>
<path d="M3693 2459 c-110 -21 -204 -95 -251 -197 -37 -81 -37 -193 0 -274
121 -264 493 -269 617 -8 22 47 26 69 26 145 0 76 -4 98 -26 145 -64 135 -224
217 -366 189z m137 -184 c57 -29 90 -84 90 -150 0 -97 -72 -167 -172 -167
-110 0 -187 104 -158 213 27 101 145 151 240 104z"/>
</g>
</svg>
