<?xml version="1.0" encoding="utf-8"?>
<!-- Generator: Adobe Illustrator 19.1.1, SVG Export Plug-In . SVG Version: 6.00 Build 0)  -->
<svg version="1.1" id="Layer_1" xmlns="http://www.w3.org/2000/svg" xmlns:xlink="http://www.w3.org/1999/xlink" x="0px" y="0px"
	 width="185px" height="39px" viewBox="0 0 185 39" style="enable-background:new 0 0 185 39;" xml:space="preserve">
<style type="text/css">
	.st0{fill:#D71920;}
</style>
<g>
	<rect x="119.7" y="1.2" width="6.4" height="36.6"/>
	<polygon points="160.4,1.2 185,1.2 185,7.6 166.8,7.6 166.8,16.3 181.8,16.3 181.8,22.7 166.8,22.7 166.8,31.5 185,31.5 185,37.8 
		160.4,37.8 	"/>
	<polygon points="33.3,1.2 57.9,1.2 57.9,7.6 39.7,7.6 39.7,16.3 54.7,16.3 54.7,22.7 39.7,22.7 39.7,31.5 57.9,31.5 57.9,37.8 
		33.3,37.8 	"/>
	<polygon points="156.8,1.2 129.6,1.2 129.6,7.6 140.1,7.6 140.1,37.8 146.4,37.8 146.4,7.6 156.8,7.6 	"/>
	<path d="M27.5,20.7c-1.4-1.5-3.1-2.5-5.1-3.2c-1.9-0.7-4.4-1.3-7.5-2c-3-0.6-5-1.3-6-1.9c-0.8-0.5-1.2-1.3-1.2-2.3
		c0-1.2,0.5-2.2,1.7-2.9c1.2-0.8,3-1,5.4-1c6.3,0,7.4,2.8,7.6,5l0.1,0.9h6.4l0-1C28.7,8.7,27.3,6,24.7,4c-2.6-1.9-6-2.8-10.1-2.8
		C10.7,1.2,7.4,2.1,5,4c-2.5,1.9-3.8,4.4-3.8,7.4c0,2.7,1,4.9,2.9,6.5c1.9,1.6,4.8,2.7,9,3.6c3.9,0.8,6.6,1.6,8.1,2.4
		c1.3,0.7,1.9,1.7,1.9,3.2c0,1.4-0.6,2.5-1.9,3.4c-1.4,0.9-3.3,1.2-5.7,1.2c-2.5,0-4.7-0.4-6.4-1.5c-1.7-1-2.6-2.6-2.8-4.8l-0.1-0.9
		H0l0,1c0.1,3.6,1.5,6.5,4.2,8.8c2.6,2.3,6.5,3.4,11.7,3.4c4,0,7.4-1,9.9-3.1c2.6-2.1,3.9-4.8,3.9-7.9C29.7,24.3,29,22.2,27.5,20.7"
		/>
	<path d="M109.9,24.3c3.1-1.5,5.5-4.8,6-8.2c0.1-0.8,0.3-1.7,0.3-2.5c0-3.2-1.3-6.5-3.6-8.6l-0.1-0.1c-1-1.1-2.2-1.9-3.5-2.5
		c-1.9-0.8-3.3-1.1-5.4-1.2c0,0-0.1,0-0.1,0l-28,0l0,0C66,1.3,58.3,9.5,58.3,19.5c0,10.1,7.8,18.3,17.3,18.3
		c9.5,0,17.3-8.2,17.3-18.3c0-4.5-1.5-8.7-4.1-11.9h12.6h2.4c3.5,0.2,5.7,3.1,5.7,5.7c0,3.5-2.6,6.3-6.1,6.3h-0.2l4.7,5.6
		C108.7,24.9,109.2,24.6,109.9,24.3 M75.6,31.7c-6,0-11-5.6-11-12.2c0-6.6,4.9-11.9,11-11.9c6,0,11,5.4,11,11.9
		C86.6,26.1,81.6,31.7,75.6,31.7"/>
	<polygon class="st0" points="108,25.1 103.3,19.5 103.3,19.5 94.8,19.5 110.3,37.8 118.7,37.8 	"/>
	<polygon class="st0" points="72.6,19.5 87.9,37.8 96.4,37.8 81,19.5 	"/>
</g>
</svg>
