<?xml version="1.0" standalone="no"?>
<!DOCTYPE svg PUBLIC "-//W3C//DTD SVG 20010904//EN"
 "http://www.w3.org/TR/2001/REC-SVG-20010904/DTD/svg10.dtd">
<svg version="1.0" xmlns="http://www.w3.org/2000/svg"
 width="512.000000pt" height="512.000000pt" viewBox="0 0 512.000000 512.000000"
 preserveAspectRatio="xMidYMid meet">
<metadata>
Created by potrace 1.16, written by Peter Selinger 2001-2019
</metadata>
<g transform="translate(0.000000,512.000000) scale(0.100000,-0.100000)"
fill="#000000" stroke="none">
<path d="M2390 5109 c-623 -69 -1147 -536 -1288 -1145 -34 -147 -42 -266 -42
-647 0 -403 3 -430 63 -509 18 -24 56 -56 84 -73 l51 -30 4 -95 c5 -113 26
-168 88 -230 59 -59 118 -83 218 -88 l83 -5 26 -51 c34 -68 76 -129 135 -198
l49 -57 -85 -169 -85 -169 -288 -97 c-378 -128 -491 -188 -675 -364 -251 -241
-401 -537 -454 -895 -22 -148 -16 -219 19 -255 l27 -27 2240 0 2240 0 27 27
c35 36 41 107 19 255 -53 358 -203 654 -454 895 -184 176 -297 236 -675 364
l-288 97 -85 168 -84 169 57 69 c116 138 198 311 234 493 11 57 22 113 24 124
5 21 11 22 132 26 104 3 137 8 174 25 60 27 125 92 153 152 20 44 21 62 24
421 4 474 -9 607 -80 815 -148 433 -500 785 -933 933 -206 70 -437 95 -655 71z
m435 -218 c258 -56 465 -169 651 -355 208 -209 334 -463 372 -753 l9 -63 -97
0 -96 0 -13 102 c-53 427 -352 765 -770 871 -76 19 -113 22 -321 22 -208 0
-245 -3 -321 -22 -418 -106 -717 -444 -770 -871 l-13 -102 -97 0 c-87 0 -97 2
-94 18 2 9 9 53 15 97 25 166 95 344 201 506 73 112 240 281 347 352 154 103
354 183 512 206 41 6 86 13 100 15 57 10 299 -5 385 -23z m-33 -385 c202 -40
366 -138 489 -294 110 -137 166 -291 176 -480 l6 -113 -44 7 c-119 17 -295 57
-375 85 -201 70 -403 189 -558 328 -92 83 -113 89 -241 71 -206 -29 -390 -121
-527 -264 -44 -45 -48 -47 -48 -25 0 13 9 58 21 99 82 300 323 523 629 585 91
18 379 19 472 1z m-429 -624 c263 -237 595 -388 981 -446 54 -8 101 -17 103
-20 8 -8 -15 -296 -37 -480 -54 -439 -100 -579 -247 -761 -95 -117 -256 -222
-403 -262 -90 -25 -310 -25 -400 0 -158 43 -324 156 -427 292 -29 38 -53 73
-53 77 0 5 44 8 98 8 l97 -1 30 -51 c37 -65 99 -113 171 -134 85 -24 342 -17
405 13 60 27 125 92 152 152 30 64 30 178 0 242 -27 60 -92 125 -152 152 -63
30 -320 37 -405 13 -72 -21 -134 -69 -171 -134 l-30 -51 -147 -1 c-82 0 -148
3 -148 8 0 4 -7 39 -15 77 -34 167 -80 549 -91 760 l-6 130 79 105 c44 58 110
133 147 167 109 100 264 168 414 182 7 0 31 -16 55 -37z m-899 -409 c3 -27 8
-102 11 -168 4 -66 13 -178 21 -250 7 -71 14 -138 14 -148 0 -17 -8 -19 -96
-15 -94 3 -96 4 -125 36 l-29 32 0 280 0 280 99 0 99 0 6 -47z m2396 -233 l0
-280 -29 -32 c-29 -32 -31 -33 -125 -36 -88 -4 -96 -2 -96 15 0 10 7 77 14
148 8 72 17 186 21 255 3 69 8 144 11 168 l5 42 100 0 99 0 0 -280z m-2315
-572 c2 -13 9 -51 15 -86 6 -35 14 -70 17 -78 11 -29 -48 -15 -83 20 -32 32
-34 38 -34 100 l0 66 40 0 c33 0 40 -4 45 -22z m1087 -217 c25 -28 29 -39 24
-70 -3 -23 -17 -46 -37 -64 l-31 -29 -135 4 -135 3 -29 33 c-35 39 -37 79 -8
116 32 41 53 46 192 43 l129 -2 30 -34z m554 -762 l66 -132 -27 -75 c-36 -100
-107 -267 -157 -366 l-40 -79 -169 169 -169 169 43 45 c24 25 119 125 211 223
93 97 170 177 172 177 2 0 33 -59 70 -131z m-933 -486 c-86 -90 -157 -163
-159 -163 -13 0 -148 299 -198 440 l-28 75 58 118 58 117 213 -212 212 -211
-156 -164z m318 492 l147 0 -81 -85 c-45 -47 -84 -86 -87 -88 -3 -1 -48 41
-100 93 -91 91 -93 95 -60 88 19 -5 101 -8 181 -8z m-821 -395 c106 -264 249
-527 435 -800 51 -74 115 -172 144 -218 l51 -82 -958 0 -959 0 9 68 c53 399
303 770 643 954 76 41 546 209 573 205 7 -1 35 -58 62 -127z m1924 50 c131
-44 274 -99 319 -122 347 -180 599 -551 655 -966 l9 -62 -959 0 -958 0 51 82
c29 46 93 144 144 218 182 267 314 507 417 760 31 74 58 143 61 153 4 9 10 17
15 17 5 0 115 -36 246 -80z m-937 -312 c101 -101 183 -187 183 -192 0 -5 -48
-81 -107 -168 -60 -88 -138 -208 -176 -266 -37 -59 -72 -107 -77 -107 -5 0
-40 48 -77 107 -38 58 -117 179 -177 267 -59 89 -106 167 -103 174 6 15 337
367 346 367 3 0 88 -82 188 -182z"/>
<path d="M3599 1132 c-28 -25 -34 -37 -34 -72 0 -35 6 -47 33 -71 20 -18 43
-29 62 -29 41 0 89 45 96 91 5 30 1 41 -22 68 -19 20 -42 34 -65 37 -31 5 -42
1 -70 -24z"/>
<path d="M3975 961 c-36 -15 -60 -51 -60 -91 0 -35 9 -47 96 -137 54 -56 114
-130 139 -171 48 -82 83 -107 135 -98 38 8 62 31 75 75 7 27 4 42 -26 98 -44
85 -95 152 -175 233 -95 94 -131 112 -184 91z"/>
</g>
</svg>
